M48
;DRILL file {KiCad 4.0.6} date 11/25/17 15:45:12
;FORMAT={-:-/ absolute / metric / decimal}
FMAT,2
METRIC,TZ
T1C0.400
T2C1.000
%
G90
G05
M71
T1
X119.301Y-123.405
X119.716Y-124.227
X120.168Y-122.459
X120.84Y-121.277
X122.139Y-120.344
X123.071Y-119.362
X124.269Y-116.893
X125.769Y-113.35
X127.403Y-109.048
X128.769Y-107.476
X128.821Y-82.183
X130.206Y-106.438
X130.883Y-109.143
X133.142Y-113.743
X133.767Y-112.966
X134.423Y-112.485
X135.468Y-105.031
X140.832Y-82.819
X142.301Y-106.317
X142.964Y-84.522
X143.552Y-86.095
X143.719Y-87.634
X144.379Y-91.739
X145.113Y-94.752
X145.725Y-80.332
X146.178Y-93.343
X146.179Y-90.383
X146.195Y-91.492
X146.201Y-96.07
X146.211Y-96.871
X146.415Y-80.918
X148.354Y-83.744
X149.591Y-88.191
X149.605Y-83.809
X149.822Y-87.214
X150.24Y-89.749
X151.093Y-90.157
X151.251Y-111.911
X151.413Y-87.628
X151.578Y-88.853
X152.213Y-87.719
X154.24Y-114.602
X155.769Y-124.995
X156.827Y-96.478
X156.839Y-91.779
X157.695Y-124.143
X157.885Y-125.577
T2
X117.486Y-75.019
X117.486Y-77.559
X120.026Y-75.019
X120.026Y-77.559
X122.566Y-75.019
X122.566Y-77.559
X125.106Y-75.019
X125.106Y-77.559
X127.646Y-75.019
X127.646Y-77.559
X130.186Y-75.019
X130.186Y-77.559
X132.726Y-75.019
X132.726Y-77.559
X135.266Y-75.019
X135.266Y-77.559
X137.806Y-75.019
X137.806Y-77.559
X140.346Y-75.019
X140.346Y-77.559
X142.886Y-75.019
X142.886Y-77.559
X145.426Y-75.019
X145.426Y-77.559
X147.966Y-75.019
X147.966Y-77.559
X150.506Y-75.019
X150.506Y-77.559
X153.046Y-75.019
X153.046Y-77.559
X155.586Y-75.019
X155.586Y-77.559
T0
M30
