%TF.GenerationSoftware,KiCad,Pcbnew,4.0.6*%
%TF.CreationDate,2017-11-25T15:44:54+09:00*%
%TF.ProjectId,gb_rom_board,67625F726F6D5F626F6172642E6B6963,rev?*%
%TF.FileFunction,Soldermask,Top*%
%FSLAX46Y46*%
G04 Gerber Fmt 4.6, Leading zero omitted, Abs format (unit mm)*
G04 Created by KiCad (PCBNEW 4.0.6) date 11/25/17 15:44:54*
%MOMM*%
%LPD*%
G01*
G04 APERTURE LIST*
%ADD10C,0.100000*%
%ADD11R,1.100000X2.325000*%
%ADD12R,2.325000X1.100000*%
%ADD13R,2.100000X2.100000*%
%ADD14O,2.100000X2.100000*%
%ADD15R,1.900000X6.200000*%
%ADD16R,1.400000X6.200000*%
G04 APERTURE END LIST*
D10*
D11*
X152362000Y-85725900D03*
X151092000Y-85725900D03*
X149822000Y-85725900D03*
X148552000Y-85725900D03*
X153632000Y-85725900D03*
X154902000Y-85725900D03*
X156172000Y-85725900D03*
X157442000Y-85725900D03*
D12*
X147674500Y-87873400D03*
X147674500Y-89143400D03*
X147674500Y-90413400D03*
X147674500Y-91683400D03*
X147674500Y-92953400D03*
X147674500Y-94223400D03*
X147674500Y-95493400D03*
X147674500Y-96763400D03*
D11*
X148552000Y-98910900D03*
X149822000Y-98910900D03*
X151092000Y-98910900D03*
X152362000Y-98910900D03*
X153632000Y-98910900D03*
X154902000Y-98910900D03*
X156172000Y-98910900D03*
X157442000Y-98910900D03*
D12*
X158319500Y-96763400D03*
X158319500Y-95493400D03*
X158319500Y-94223400D03*
X158319500Y-92953400D03*
X158319500Y-91683400D03*
X158319500Y-90413400D03*
X158319500Y-89143400D03*
X158319500Y-87873400D03*
D13*
X155586000Y-75018900D03*
D14*
X155586000Y-77558900D03*
X153046000Y-75018900D03*
X153046000Y-77558900D03*
X150506000Y-75018900D03*
X150506000Y-77558900D03*
X147966000Y-75018900D03*
X147966000Y-77558900D03*
X145426000Y-75018900D03*
X145426000Y-77558900D03*
X142886000Y-75018900D03*
X142886000Y-77558900D03*
X140346000Y-75018900D03*
X140346000Y-77558900D03*
X137806000Y-75018900D03*
X137806000Y-77558900D03*
X135266000Y-75018900D03*
X135266000Y-77558900D03*
X132726000Y-75018900D03*
X132726000Y-77558900D03*
X130186000Y-75018900D03*
X130186000Y-77558900D03*
X127646000Y-75018900D03*
X127646000Y-77558900D03*
X125106000Y-75018900D03*
X125106000Y-77558900D03*
X122566000Y-75018900D03*
X122566000Y-77558900D03*
X120026000Y-75018900D03*
X120026000Y-77558900D03*
X117486000Y-75018900D03*
X117486000Y-77558900D03*
D15*
X115019000Y-129402000D03*
D16*
X116769000Y-129402000D03*
X118269000Y-129402000D03*
X119769000Y-129402000D03*
X121269000Y-129402000D03*
X122769000Y-129402000D03*
X124269000Y-129402000D03*
X125769000Y-129402000D03*
X127269000Y-129402000D03*
X128769000Y-129402000D03*
X130269000Y-129402000D03*
X131769000Y-129402000D03*
X133269000Y-129402000D03*
X134769000Y-129402000D03*
X136269000Y-129402000D03*
X137769000Y-129402000D03*
X139269000Y-129402000D03*
X140769000Y-129402000D03*
X142269000Y-129402000D03*
X143769000Y-129402000D03*
X145269000Y-129402000D03*
X146769000Y-129402000D03*
X148269000Y-129402000D03*
X149769000Y-129402000D03*
X151269000Y-129402000D03*
X152769000Y-129402000D03*
X154269000Y-129402000D03*
X155769000Y-129402000D03*
X157269000Y-129402000D03*
X158769000Y-129402000D03*
X160269000Y-129402000D03*
D15*
X162019000Y-129402000D03*
M02*
