%TF.GenerationSoftware,KiCad,Pcbnew,4.0.6*%
%TF.CreationDate,2017-11-25T15:44:53+09:00*%
%TF.ProjectId,gb_rom_board,67625F726F6D5F626F6172642E6B6963,rev?*%
%TF.FileFunction,Legend,Top*%
%FSLAX46Y46*%
G04 Gerber Fmt 4.6, Leading zero omitted, Abs format (unit mm)*
G04 Created by KiCad (PCBNEW 4.0.6) date 11/25/17 15:44:53*
%MOMM*%
%LPD*%
G01*
G04 APERTURE LIST*
%ADD10C,0.100000*%
%ADD11C,0.120000*%
%ADD12C,0.010000*%
%ADD13C,0.150000*%
G04 APERTURE END LIST*
D10*
D11*
X151997000Y-81793400D02*
X144757000Y-81793400D01*
X144757000Y-81793400D02*
X143757000Y-82793400D01*
X143757000Y-82793400D02*
X143757000Y-102843400D01*
X143757000Y-102843400D02*
X162237000Y-102843400D01*
X162237000Y-102843400D02*
X162237000Y-81793400D01*
X162237000Y-81793400D02*
X153997000Y-81793400D01*
D10*
X148212000Y-84613400D02*
X147712000Y-84613400D01*
X147712000Y-84613400D02*
X146562000Y-85763400D01*
X146562000Y-85763400D02*
X146562000Y-86263400D01*
X157782000Y-84613400D02*
X159432000Y-84613400D01*
X159432000Y-84613400D02*
X159432000Y-86263400D01*
X148212000Y-100023400D02*
X146562000Y-100023400D01*
X146562000Y-100023400D02*
X146562000Y-98373400D01*
X157782000Y-100023400D02*
X159432000Y-100023400D01*
X159432000Y-100023400D02*
X159432000Y-98373400D01*
D11*
X116156000Y-73688900D02*
X116156000Y-78888900D01*
X154316000Y-73688900D02*
X116156000Y-73688900D01*
X156916000Y-78888900D02*
X116156000Y-78888900D01*
X154316000Y-73688900D02*
X154316000Y-76288900D01*
X154316000Y-76288900D02*
X156916000Y-76288900D01*
X156916000Y-76288900D02*
X156916000Y-78888900D01*
X155586000Y-73688900D02*
X156916000Y-73688900D01*
X156916000Y-73688900D02*
X156916000Y-75018900D01*
D12*
G36*
X162644667Y-111573733D02*
X114215334Y-111573733D01*
X114215334Y-109914267D01*
X114313864Y-109914267D01*
X114771954Y-109914267D01*
X114955821Y-109913834D01*
X115082990Y-109911356D01*
X115164495Y-109905063D01*
X115211372Y-109893187D01*
X115234654Y-109873956D01*
X115245376Y-109845603D01*
X115247122Y-109838067D01*
X115256214Y-109783744D01*
X115272452Y-109672692D01*
X115294392Y-109515366D01*
X115320589Y-109322225D01*
X115349598Y-109103724D01*
X115367597Y-108966000D01*
X115412636Y-108632537D01*
X115454161Y-108359363D01*
X115494439Y-108139283D01*
X115535733Y-107965098D01*
X115580308Y-107829611D01*
X115630428Y-107725627D01*
X115688359Y-107645948D01*
X115756364Y-107583376D01*
X115815224Y-107543417D01*
X115951852Y-107489911D01*
X116103783Y-107476109D01*
X116245203Y-107501910D01*
X116326617Y-107545416D01*
X116376696Y-107590076D01*
X116414793Y-107640799D01*
X116441149Y-107705204D01*
X116456003Y-107790907D01*
X116459595Y-107905529D01*
X116452166Y-108056686D01*
X116433956Y-108251996D01*
X116405204Y-108499079D01*
X116366304Y-108804386D01*
X116333864Y-109051569D01*
X116303341Y-109280644D01*
X116276072Y-109481841D01*
X116253395Y-109645395D01*
X116236648Y-109761538D01*
X116227169Y-109820502D01*
X116227042Y-109821133D01*
X116208085Y-109914267D01*
X117148447Y-109914267D01*
X117258723Y-109066912D01*
X117305396Y-108719615D01*
X117347907Y-108432939D01*
X117388303Y-108200059D01*
X117428633Y-108014149D01*
X117470946Y-107868384D01*
X117517292Y-107755937D01*
X117569719Y-107669982D01*
X117630276Y-107603694D01*
X117701012Y-107550246D01*
X117716985Y-107540238D01*
X117850170Y-107488578D01*
X118002348Y-107473685D01*
X118148095Y-107494918D01*
X118261991Y-107551635D01*
X118264861Y-107554059D01*
X118305982Y-107597366D01*
X118336660Y-107652250D01*
X118356899Y-107725745D01*
X118366700Y-107824881D01*
X118366065Y-107956693D01*
X118354996Y-108128213D01*
X118333497Y-108346472D01*
X118301569Y-108618505D01*
X118265294Y-108904516D01*
X118233680Y-109149868D01*
X118205131Y-109373823D01*
X118180765Y-109567429D01*
X118161698Y-109721737D01*
X118149045Y-109827796D01*
X118143923Y-109876654D01*
X118143867Y-109878182D01*
X118177415Y-109894842D01*
X118277149Y-109906446D01*
X118441703Y-109912887D01*
X118599532Y-109914267D01*
X119055198Y-109914267D01*
X119901864Y-109914267D01*
X120377532Y-109914267D01*
X120566479Y-109913553D01*
X120697955Y-109910563D01*
X120782214Y-109904021D01*
X120829511Y-109892653D01*
X120850100Y-109875183D01*
X120854255Y-109855000D01*
X120856000Y-109837456D01*
X121361200Y-109837456D01*
X121361200Y-109914267D01*
X124329270Y-109914267D01*
X124369235Y-109614095D01*
X124390528Y-109469968D01*
X124405998Y-109360455D01*
X124408139Y-109280865D01*
X124389444Y-109226510D01*
X124342404Y-109192699D01*
X124259515Y-109174743D01*
X124133267Y-109167951D01*
X123956155Y-109167634D01*
X123720670Y-109169103D01*
X123657082Y-109169200D01*
X122904964Y-109169200D01*
X123042870Y-109025267D01*
X123096394Y-108964997D01*
X123166370Y-108882191D01*
X124970630Y-108882191D01*
X124972852Y-109040945D01*
X124983841Y-109156125D01*
X125008061Y-109251754D01*
X125049977Y-109351856D01*
X125062912Y-109378695D01*
X125208114Y-109599770D01*
X125406638Y-109783442D01*
X125652537Y-109925099D01*
X125865467Y-110001271D01*
X125998666Y-110025362D01*
X126178322Y-110040293D01*
X126383787Y-110046103D01*
X126594412Y-110042833D01*
X126789548Y-110030522D01*
X126948546Y-110009210D01*
X126993918Y-109999095D01*
X127231902Y-109914267D01*
X128741064Y-109914267D01*
X129683611Y-109914267D01*
X129741627Y-109465533D01*
X129789702Y-109098737D01*
X129831725Y-108792548D01*
X129869283Y-108540269D01*
X129903962Y-108335207D01*
X129937348Y-108170666D01*
X129971028Y-108039950D01*
X130006588Y-107936366D01*
X130045614Y-107853218D01*
X130089692Y-107783810D01*
X130140409Y-107721449D01*
X130159883Y-107700196D01*
X130325185Y-107572356D01*
X130528642Y-107496924D01*
X130718549Y-107476610D01*
X130901837Y-107492445D01*
X131035955Y-107545189D01*
X131131716Y-107640295D01*
X131167416Y-107702975D01*
X131185679Y-107743172D01*
X131198743Y-107783291D01*
X131206164Y-107831933D01*
X131207496Y-107897700D01*
X131202295Y-107989192D01*
X131190117Y-108115010D01*
X131170516Y-108283754D01*
X131143048Y-108504025D01*
X131114368Y-108728933D01*
X131082936Y-108976073D01*
X131053748Y-109208247D01*
X131028117Y-109414794D01*
X131007356Y-109585056D01*
X130992780Y-109708374D01*
X130986041Y-109770333D01*
X130972513Y-109914267D01*
X131432478Y-109914267D01*
X131616766Y-109913841D01*
X131744312Y-109911393D01*
X131826104Y-109905162D01*
X131873133Y-109893392D01*
X131896389Y-109874322D01*
X131906861Y-109846194D01*
X131908658Y-109838067D01*
X131926396Y-109737924D01*
X131949182Y-109583980D01*
X131975695Y-109387681D01*
X132004611Y-109160469D01*
X132034608Y-108913790D01*
X132064366Y-108659087D01*
X132080768Y-108512898D01*
X132706534Y-108512898D01*
X132734719Y-108853662D01*
X132817609Y-109159749D01*
X132952701Y-109427612D01*
X133137491Y-109653703D01*
X133369478Y-109834476D01*
X133646160Y-109966382D01*
X133756400Y-110001271D01*
X133910907Y-110029418D01*
X134109722Y-110044490D01*
X134330751Y-110046770D01*
X134551900Y-110036540D01*
X134751074Y-110014083D01*
X134881941Y-109986897D01*
X135068255Y-109914267D01*
X136530398Y-109914267D01*
X136988487Y-109914267D01*
X137172354Y-109913834D01*
X137299523Y-109911356D01*
X137381029Y-109905063D01*
X137427905Y-109893187D01*
X137451187Y-109873956D01*
X137461909Y-109845603D01*
X137463656Y-109838067D01*
X137472747Y-109783744D01*
X137488985Y-109672692D01*
X137510925Y-109515366D01*
X137537122Y-109322225D01*
X137566131Y-109103724D01*
X137584130Y-108966000D01*
X137629169Y-108632537D01*
X137670695Y-108359363D01*
X137710972Y-108139283D01*
X137752266Y-107965098D01*
X137796841Y-107829611D01*
X137846962Y-107725627D01*
X137904892Y-107645948D01*
X137972897Y-107583376D01*
X138031757Y-107543417D01*
X138168385Y-107489911D01*
X138320317Y-107476109D01*
X138461737Y-107501910D01*
X138543150Y-107545416D01*
X138593229Y-107590076D01*
X138631327Y-107640799D01*
X138657682Y-107705204D01*
X138672536Y-107790907D01*
X138676128Y-107905529D01*
X138668699Y-108056686D01*
X138650489Y-108251996D01*
X138621738Y-108499079D01*
X138582837Y-108804386D01*
X138550397Y-109051569D01*
X138519874Y-109280644D01*
X138492605Y-109481841D01*
X138469928Y-109645395D01*
X138453181Y-109761538D01*
X138443702Y-109820502D01*
X138443575Y-109821133D01*
X138424618Y-109914267D01*
X139364980Y-109914267D01*
X139475256Y-109066912D01*
X139521930Y-108719615D01*
X139564440Y-108432939D01*
X139604836Y-108200059D01*
X139645166Y-108014149D01*
X139687479Y-107868384D01*
X139733825Y-107755937D01*
X139786252Y-107669982D01*
X139846809Y-107603694D01*
X139917545Y-107550246D01*
X139933519Y-107540238D01*
X140066704Y-107488578D01*
X140218881Y-107473685D01*
X140364628Y-107494918D01*
X140478525Y-107551635D01*
X140481394Y-107554059D01*
X140522515Y-107597366D01*
X140553194Y-107652250D01*
X140573432Y-107725745D01*
X140583233Y-107824881D01*
X140582598Y-107956693D01*
X140571530Y-108128213D01*
X140550031Y-108346472D01*
X140518102Y-108618505D01*
X140481827Y-108904516D01*
X140450213Y-109149868D01*
X140421665Y-109373823D01*
X140397299Y-109567429D01*
X140378231Y-109721737D01*
X140365578Y-109827796D01*
X140360456Y-109876654D01*
X140360400Y-109878182D01*
X140393949Y-109894842D01*
X140493683Y-109906446D01*
X140658236Y-109912887D01*
X140816066Y-109914267D01*
X141271731Y-109914267D01*
X142118398Y-109914267D01*
X142594066Y-109914267D01*
X142783013Y-109913553D01*
X142914489Y-109910563D01*
X142998748Y-109904021D01*
X143046044Y-109892653D01*
X143066633Y-109875183D01*
X143070788Y-109855000D01*
X143075270Y-109809948D01*
X143087671Y-109704828D01*
X143107099Y-109546727D01*
X143115972Y-109475912D01*
X143973844Y-109475912D01*
X143991764Y-109644709D01*
X144052208Y-109788704D01*
X144080417Y-109825982D01*
X144195471Y-109931544D01*
X144323841Y-109990367D01*
X144485372Y-110009872D01*
X144567549Y-110008140D01*
X144695647Y-109998441D01*
X144780830Y-109978976D01*
X144847914Y-109940639D01*
X144915337Y-109880526D01*
X145027705Y-109729952D01*
X145083548Y-109561060D01*
X145084686Y-109387411D01*
X145032942Y-109222564D01*
X144930137Y-109080080D01*
X144794581Y-108981717D01*
X144637325Y-108933388D01*
X144464576Y-108933082D01*
X144296273Y-108976190D01*
X144152356Y-109058100D01*
X144067246Y-109149885D01*
X143998865Y-109303807D01*
X143973844Y-109475912D01*
X143115972Y-109475912D01*
X143132660Y-109342735D01*
X143163461Y-109099940D01*
X143198611Y-108825431D01*
X143237216Y-108526297D01*
X143266977Y-108297133D01*
X143373566Y-107478542D01*
X145755618Y-107478542D01*
X145778111Y-107496082D01*
X145836439Y-107505504D01*
X145942487Y-107509225D01*
X146048363Y-107509733D01*
X146193287Y-107510441D01*
X146282702Y-107514699D01*
X146328830Y-107525714D01*
X146343894Y-107546690D01*
X146340119Y-107580832D01*
X146338987Y-107585933D01*
X146330495Y-107637565D01*
X146314584Y-107747537D01*
X146292457Y-107907009D01*
X146265321Y-108107139D01*
X146234382Y-108339087D01*
X146200843Y-108594011D01*
X146185467Y-108712000D01*
X146151162Y-108974277D01*
X146118923Y-109217496D01*
X146089953Y-109432814D01*
X146065458Y-109611390D01*
X146046644Y-109744385D01*
X146034716Y-109822955D01*
X146031946Y-109838067D01*
X146014843Y-109914267D01*
X146489622Y-109914267D01*
X146660149Y-109913355D01*
X146803515Y-109910851D01*
X146907612Y-109907102D01*
X146960329Y-109902454D01*
X146964400Y-109900676D01*
X146968703Y-109865102D01*
X146980927Y-109770200D01*
X147000045Y-109623785D01*
X147025033Y-109433670D01*
X147054862Y-109207667D01*
X147088508Y-108953590D01*
X147116767Y-108740743D01*
X147146918Y-108512898D01*
X148048134Y-108512898D01*
X148076319Y-108853662D01*
X148159209Y-109159749D01*
X148294301Y-109427612D01*
X148479091Y-109653703D01*
X148711078Y-109834476D01*
X148987760Y-109966382D01*
X149098000Y-110001271D01*
X149252507Y-110029418D01*
X149451322Y-110044490D01*
X149672351Y-110046770D01*
X149893500Y-110036540D01*
X150092674Y-110014083D01*
X150223541Y-109986897D01*
X150409855Y-109914267D01*
X151869685Y-109914267D01*
X152346509Y-109914267D01*
X152546921Y-109912682D01*
X152687134Y-109907488D01*
X152774615Y-109898020D01*
X152816835Y-109883617D01*
X152823557Y-109871933D01*
X152827912Y-109821422D01*
X152839743Y-109718283D01*
X152857520Y-109573986D01*
X152879712Y-109400003D01*
X152904790Y-109207803D01*
X152931224Y-109008856D01*
X152957484Y-108814632D01*
X152982040Y-108636602D01*
X153003362Y-108486236D01*
X153019921Y-108375004D01*
X153030186Y-108314376D01*
X153032334Y-108306668D01*
X153053257Y-108331072D01*
X153106922Y-108404915D01*
X153188521Y-108521259D01*
X153293246Y-108673171D01*
X153416289Y-108853715D01*
X153552843Y-109055956D01*
X153585334Y-109104331D01*
X154127200Y-109911905D01*
X154660600Y-109913086D01*
X154842034Y-109912604D01*
X154996992Y-109910509D01*
X155114050Y-109907091D01*
X155181784Y-109902639D01*
X155194000Y-109899533D01*
X155175408Y-109869097D01*
X155122792Y-109790051D01*
X155040888Y-109669332D01*
X154934436Y-109513877D01*
X154808173Y-109330621D01*
X154666836Y-109126500D01*
X154612696Y-109048551D01*
X154434379Y-108790189D01*
X154293873Y-108582259D01*
X154188685Y-108420754D01*
X154116325Y-108301668D01*
X154074299Y-108220995D01*
X154060117Y-108174728D01*
X154062362Y-108163726D01*
X154095204Y-108128777D01*
X154171687Y-108055458D01*
X154284734Y-107950297D01*
X154427273Y-107819821D01*
X154592229Y-107670558D01*
X154753734Y-107525799D01*
X154958610Y-107343951D01*
X155119079Y-107204119D01*
X155240380Y-107102242D01*
X155327752Y-107034260D01*
X155386435Y-106996112D01*
X155421669Y-106983740D01*
X155438692Y-106993081D01*
X155439358Y-106994490D01*
X155455176Y-107043065D01*
X155485648Y-107147558D01*
X155528491Y-107299473D01*
X155581417Y-107490312D01*
X155642142Y-107711578D01*
X155708381Y-107954775D01*
X155777846Y-108211405D01*
X155848254Y-108472972D01*
X155917318Y-108730978D01*
X155982753Y-108976926D01*
X156042274Y-109202320D01*
X156093594Y-109398662D01*
X156134429Y-109557455D01*
X156162492Y-109670203D01*
X156175500Y-109728408D01*
X156176134Y-109733640D01*
X156160599Y-109776295D01*
X156116974Y-109869495D01*
X156049726Y-110004390D01*
X155963324Y-110172130D01*
X155862236Y-110363865D01*
X155788791Y-110500834D01*
X155679170Y-110704627D01*
X155579652Y-110890965D01*
X155495011Y-111050803D01*
X155430020Y-111175096D01*
X155389453Y-111254799D01*
X155378430Y-111278440D01*
X155373923Y-111300915D01*
X155386657Y-111316658D01*
X155425920Y-111326588D01*
X155500997Y-111331622D01*
X155621176Y-111332678D01*
X155795742Y-111330673D01*
X155890932Y-111329080D01*
X156426453Y-111319733D01*
X157637941Y-109084533D01*
X157832708Y-108724885D01*
X157947310Y-108512898D01*
X158885467Y-108512898D01*
X158913653Y-108853662D01*
X158996543Y-109159749D01*
X159131634Y-109427612D01*
X159316424Y-109653703D01*
X159548412Y-109834476D01*
X159825094Y-109966382D01*
X159935334Y-110001271D01*
X160089840Y-110029418D01*
X160288655Y-110044490D01*
X160509684Y-110046770D01*
X160730833Y-110036540D01*
X160930007Y-110014083D01*
X161060874Y-109986897D01*
X161359785Y-109870374D01*
X161631952Y-109698322D01*
X161869080Y-109479534D01*
X162062875Y-109222804D01*
X162205043Y-108936925D01*
X162274589Y-108700171D01*
X162297861Y-108519783D01*
X162303893Y-108305125D01*
X162294050Y-108078526D01*
X162269694Y-107862315D01*
X162232190Y-107678821D01*
X162207575Y-107602796D01*
X162068776Y-107337485D01*
X161875554Y-107106859D01*
X161635512Y-106918384D01*
X161377853Y-106787844D01*
X161230335Y-106747249D01*
X161036376Y-106718414D01*
X160816357Y-106702023D01*
X160590658Y-106698757D01*
X160379660Y-106709297D01*
X160203742Y-106734327D01*
X160153422Y-106746871D01*
X159888727Y-106842730D01*
X159662340Y-106970327D01*
X159449451Y-107144450D01*
X159391202Y-107201222D01*
X159183949Y-107446358D01*
X159033692Y-107711623D01*
X158937088Y-108005682D01*
X158890796Y-108337201D01*
X158885467Y-108512898D01*
X157947310Y-108512898D01*
X158017813Y-108382484D01*
X158190753Y-108062000D01*
X158349026Y-107768098D01*
X158490128Y-107505445D01*
X158611555Y-107278709D01*
X158710804Y-107092556D01*
X158785373Y-106951653D01*
X158832756Y-106860668D01*
X158850452Y-106824267D01*
X158850515Y-106823933D01*
X158818938Y-106815331D01*
X158731024Y-106808053D01*
X158598168Y-106802628D01*
X158431761Y-106799588D01*
X158318200Y-106799132D01*
X157784800Y-106799732D01*
X157352323Y-107688132D01*
X157238274Y-107923695D01*
X157131127Y-108147423D01*
X157035342Y-108349813D01*
X156955380Y-108521362D01*
X156895703Y-108652567D01*
X156860771Y-108733923D01*
X156857925Y-108741284D01*
X156796005Y-108906036D01*
X156773530Y-108741284D01*
X156761022Y-108663671D01*
X156737442Y-108530459D01*
X156704804Y-108352507D01*
X156665119Y-108140672D01*
X156620400Y-107905814D01*
X156578250Y-107687533D01*
X156405445Y-106798533D01*
X154372448Y-106798533D01*
X153716424Y-107428840D01*
X153543889Y-107593042D01*
X153388464Y-107737945D01*
X153256367Y-107857999D01*
X153153811Y-107947655D01*
X153087013Y-108001363D01*
X153062187Y-108013574D01*
X153062157Y-108013040D01*
X153066845Y-107970728D01*
X153079542Y-107868345D01*
X153099334Y-107712960D01*
X153125306Y-107511646D01*
X153156542Y-107271471D01*
X153192129Y-106999509D01*
X153231149Y-106702829D01*
X153258761Y-106493733D01*
X153453608Y-105020533D01*
X152998346Y-105011080D01*
X152830703Y-105008275D01*
X152689568Y-105007195D01*
X152587612Y-105007840D01*
X152537505Y-105010211D01*
X152534558Y-105011080D01*
X152528836Y-105045365D01*
X152515048Y-105141411D01*
X152493922Y-105293820D01*
X152466184Y-105497193D01*
X152432561Y-105746131D01*
X152393781Y-106035237D01*
X152350571Y-106359110D01*
X152303659Y-106712354D01*
X152253770Y-107089568D01*
X152216247Y-107374267D01*
X152164321Y-107768142D01*
X152114606Y-108143986D01*
X152067861Y-108496140D01*
X152024844Y-108818949D01*
X151986314Y-109106755D01*
X151953031Y-109353903D01*
X151925751Y-109554734D01*
X151905235Y-109703594D01*
X151892240Y-109794824D01*
X151888072Y-109821133D01*
X151869685Y-109914267D01*
X150409855Y-109914267D01*
X150522452Y-109870374D01*
X150794619Y-109698322D01*
X151031747Y-109479534D01*
X151225542Y-109222804D01*
X151367709Y-108936925D01*
X151437256Y-108700171D01*
X151460528Y-108519783D01*
X151466560Y-108305125D01*
X151456717Y-108078526D01*
X151432361Y-107862315D01*
X151394857Y-107678821D01*
X151370242Y-107602796D01*
X151231442Y-107337485D01*
X151038221Y-107106859D01*
X150798179Y-106918384D01*
X150540519Y-106787844D01*
X150393002Y-106747249D01*
X150199043Y-106718414D01*
X149979024Y-106702023D01*
X149753325Y-106698757D01*
X149542326Y-106709297D01*
X149366408Y-106734327D01*
X149316089Y-106746871D01*
X149051394Y-106842730D01*
X148825007Y-106970327D01*
X148612117Y-107144450D01*
X148553869Y-107201222D01*
X148346616Y-107446358D01*
X148196358Y-107711623D01*
X148099754Y-108005682D01*
X148053463Y-108337201D01*
X148048134Y-108512898D01*
X147146918Y-108512898D01*
X147152775Y-108468644D01*
X147185750Y-108217159D01*
X147214657Y-107994364D01*
X147238462Y-107808330D01*
X147256130Y-107667130D01*
X147266625Y-107578838D01*
X147269167Y-107552067D01*
X147291033Y-107530138D01*
X147361634Y-107516606D01*
X147488538Y-107510412D01*
X147571309Y-107509733D01*
X147873418Y-107509733D01*
X147891677Y-107416600D01*
X147905269Y-107331281D01*
X147920967Y-107210029D01*
X147931008Y-107120267D01*
X147945077Y-107000576D01*
X147959563Y-106902149D01*
X147968523Y-106857800D01*
X147969981Y-106829700D01*
X147947458Y-106812156D01*
X147889061Y-106802743D01*
X147782896Y-106799034D01*
X147677882Y-106798533D01*
X147543099Y-106797569D01*
X147438423Y-106794985D01*
X147378913Y-106791244D01*
X147370800Y-106789090D01*
X147375299Y-106754031D01*
X147387655Y-106664185D01*
X147406161Y-106531821D01*
X147429108Y-106369209D01*
X147438004Y-106306490D01*
X147462326Y-106132623D01*
X147482804Y-105981246D01*
X147497676Y-105865768D01*
X147505180Y-105799600D01*
X147505737Y-105791000D01*
X147488129Y-105773089D01*
X147429775Y-105760605D01*
X147323162Y-105752867D01*
X147160776Y-105749198D01*
X147037325Y-105748667D01*
X146568383Y-105748667D01*
X146503445Y-106265133D01*
X146438506Y-106781600D01*
X146145062Y-106791350D01*
X146011946Y-106795465D01*
X145922740Y-106804990D01*
X145867225Y-106831492D01*
X145835182Y-106886535D01*
X145816391Y-106981686D01*
X145800632Y-107128512D01*
X145794592Y-107188000D01*
X145780524Y-107307690D01*
X145766037Y-107406117D01*
X145757077Y-107450467D01*
X145755618Y-107478542D01*
X143373566Y-107478542D01*
X143462112Y-106798533D01*
X142530936Y-106798533D01*
X142512404Y-106908600D01*
X142504141Y-106965882D01*
X142488460Y-107082436D01*
X142466388Y-107250327D01*
X142438953Y-107461624D01*
X142407186Y-107708392D01*
X142372115Y-107982700D01*
X142334767Y-108276612D01*
X142324667Y-108356400D01*
X142286891Y-108654161D01*
X142251119Y-108934409D01*
X142218380Y-109189211D01*
X142189703Y-109410634D01*
X142166117Y-109590743D01*
X142148650Y-109721607D01*
X142138331Y-109795292D01*
X142136930Y-109804200D01*
X142118398Y-109914267D01*
X141271731Y-109914267D01*
X141290129Y-109804200D01*
X141327504Y-109565640D01*
X141365412Y-109296823D01*
X141402414Y-109010631D01*
X141437071Y-108719942D01*
X141467947Y-108437636D01*
X141493602Y-108176593D01*
X141512600Y-107949694D01*
X141523501Y-107769818D01*
X141525521Y-107696000D01*
X141525510Y-107515838D01*
X141520716Y-107387572D01*
X141509118Y-107295420D01*
X141488692Y-107223600D01*
X141457414Y-107156330D01*
X141456005Y-107153689D01*
X141323653Y-106957783D01*
X141163946Y-106819626D01*
X140969416Y-106734927D01*
X140732597Y-106699393D01*
X140662766Y-106697677D01*
X140448212Y-106707787D01*
X140271764Y-106745054D01*
X140113367Y-106817793D01*
X139952965Y-106934318D01*
X139834237Y-107041170D01*
X139722730Y-107145764D01*
X139650103Y-107208472D01*
X139606885Y-107234843D01*
X139583606Y-107230427D01*
X139570797Y-107200773D01*
X139569623Y-107196219D01*
X139521494Y-107096760D01*
X139432154Y-106982931D01*
X139319421Y-106873571D01*
X139201116Y-106787522D01*
X139164284Y-106767644D01*
X139062663Y-106728206D01*
X138946404Y-106706026D01*
X138792938Y-106697421D01*
X138730757Y-106696933D01*
X138502698Y-106712490D01*
X138309991Y-106764659D01*
X138133260Y-106861686D01*
X137953126Y-107011817D01*
X137923596Y-107040429D01*
X137834604Y-107125278D01*
X137783999Y-107164804D01*
X137764189Y-107163426D01*
X137766167Y-107132067D01*
X137782842Y-107043901D01*
X137801415Y-106935635D01*
X137803050Y-106925533D01*
X137823469Y-106798533D01*
X137381668Y-106798533D01*
X137217584Y-106800360D01*
X137081100Y-106805359D01*
X136984769Y-106812808D01*
X136941144Y-106821986D01*
X136939848Y-106823933D01*
X136935565Y-106863493D01*
X136923459Y-106961806D01*
X136904631Y-107110479D01*
X136880180Y-107301122D01*
X136851206Y-107525343D01*
X136818809Y-107774752D01*
X136784089Y-108040957D01*
X136748144Y-108315568D01*
X136712076Y-108590192D01*
X136676983Y-108856439D01*
X136643966Y-109105918D01*
X136614123Y-109330238D01*
X136588556Y-109521007D01*
X136568363Y-109669834D01*
X136554645Y-109768329D01*
X136549254Y-109804200D01*
X136530398Y-109914267D01*
X135068255Y-109914267D01*
X135180852Y-109870374D01*
X135453019Y-109698322D01*
X135690147Y-109479534D01*
X135883942Y-109222804D01*
X136026109Y-108936925D01*
X136095656Y-108700171D01*
X136118928Y-108519783D01*
X136124960Y-108305125D01*
X136115117Y-108078526D01*
X136090761Y-107862315D01*
X136053257Y-107678821D01*
X136028642Y-107602796D01*
X135889842Y-107337485D01*
X135696621Y-107106859D01*
X135456579Y-106918384D01*
X135198919Y-106787844D01*
X135051402Y-106747249D01*
X134857443Y-106718414D01*
X134637424Y-106702023D01*
X134411725Y-106698757D01*
X134200726Y-106709297D01*
X134024808Y-106734327D01*
X133974489Y-106746871D01*
X133709794Y-106842730D01*
X133483407Y-106970327D01*
X133270517Y-107144450D01*
X133212269Y-107201222D01*
X133005016Y-107446358D01*
X132854758Y-107711623D01*
X132758154Y-108005682D01*
X132711863Y-108337201D01*
X132706534Y-108512898D01*
X132080768Y-108512898D01*
X132092560Y-108407806D01*
X132117870Y-108171390D01*
X132138972Y-107961283D01*
X132154546Y-107788930D01*
X132163268Y-107665776D01*
X132164667Y-107622096D01*
X132142347Y-107369623D01*
X132073238Y-107162161D01*
X131954114Y-106992858D01*
X131813151Y-106875193D01*
X131669382Y-106790742D01*
X131525006Y-106736261D01*
X131361079Y-106707473D01*
X131158660Y-106700099D01*
X131049317Y-106702650D01*
X130810756Y-106723700D01*
X130608668Y-106773479D01*
X130421096Y-106860484D01*
X130226083Y-106993213D01*
X130156928Y-107048027D01*
X130058040Y-107126490D01*
X130001028Y-107164502D01*
X129976793Y-107166211D01*
X129976235Y-107135768D01*
X129977382Y-107129884D01*
X129993642Y-107043438D01*
X130012008Y-106936089D01*
X130013717Y-106925533D01*
X130034136Y-106798533D01*
X129592335Y-106798533D01*
X129428250Y-106800360D01*
X129291766Y-106805359D01*
X129195435Y-106812808D01*
X129151811Y-106821986D01*
X129150515Y-106823933D01*
X129146231Y-106863493D01*
X129134126Y-106961806D01*
X129115298Y-107110479D01*
X129090847Y-107301122D01*
X129061873Y-107525343D01*
X129029476Y-107774752D01*
X128994755Y-108040957D01*
X128958811Y-108315568D01*
X128922742Y-108590192D01*
X128887650Y-108856439D01*
X128854632Y-109105918D01*
X128824790Y-109330238D01*
X128799223Y-109521007D01*
X128779030Y-109669834D01*
X128765312Y-109768329D01*
X128759920Y-109804200D01*
X128741064Y-109914267D01*
X127231902Y-109914267D01*
X127278617Y-109897616D01*
X127519416Y-109751384D01*
X127718631Y-109557488D01*
X127878580Y-109313016D01*
X128001580Y-109015056D01*
X128089948Y-108660696D01*
X128099002Y-108610400D01*
X128113589Y-108518748D01*
X128134161Y-108379558D01*
X128159196Y-108204098D01*
X128187174Y-108003632D01*
X128216572Y-107789428D01*
X128245869Y-107572752D01*
X128273544Y-107364869D01*
X128298075Y-107177047D01*
X128317942Y-107020552D01*
X128331622Y-106906650D01*
X128337594Y-106846607D01*
X128337733Y-106842527D01*
X128325205Y-106823841D01*
X128281530Y-106811568D01*
X128197576Y-106804993D01*
X128064209Y-106803398D01*
X127873272Y-106806044D01*
X127408811Y-106815467D01*
X127316241Y-107543570D01*
X127268486Y-107902182D01*
X127223388Y-108200031D01*
X127178968Y-108443930D01*
X127133245Y-108640693D01*
X127084239Y-108797130D01*
X127029971Y-108920055D01*
X126968459Y-109016281D01*
X126897725Y-109092618D01*
X126855917Y-109127268D01*
X126732048Y-109189556D01*
X126571163Y-109227479D01*
X126400570Y-109237885D01*
X126247579Y-109217621D01*
X126203106Y-109202641D01*
X126067046Y-109111926D01*
X125966098Y-108975759D01*
X125915833Y-108821906D01*
X125914728Y-108752664D01*
X125921835Y-108626743D01*
X125936020Y-108454551D01*
X125956150Y-108246494D01*
X125981089Y-108012980D01*
X126009704Y-107764414D01*
X126040860Y-107511204D01*
X126073423Y-107263757D01*
X126106259Y-107032479D01*
X126122522Y-106925533D01*
X126142354Y-106798533D01*
X125200852Y-106798533D01*
X125086286Y-107687533D01*
X125054611Y-107944918D01*
X125026206Y-108197928D01*
X125002348Y-108433358D01*
X124984318Y-108638000D01*
X124973392Y-108798649D01*
X124970630Y-108882191D01*
X123166370Y-108882191D01*
X123186054Y-108858899D01*
X123305909Y-108714223D01*
X123450015Y-108538217D01*
X123612433Y-108338132D01*
X123787219Y-108121218D01*
X123931479Y-107941044D01*
X124149597Y-107666728D01*
X124327816Y-107439872D01*
X124469503Y-107255823D01*
X124578027Y-107109929D01*
X124656755Y-106997537D01*
X124709056Y-106913995D01*
X124738297Y-106854650D01*
X124747846Y-106814849D01*
X124747867Y-106813262D01*
X124715162Y-106810136D01*
X124621694Y-106807236D01*
X124474431Y-106804635D01*
X124280345Y-106802402D01*
X124046405Y-106800612D01*
X123779581Y-106799333D01*
X123486841Y-106798640D01*
X123314631Y-106798533D01*
X121881394Y-106798533D01*
X121841238Y-107145667D01*
X121824431Y-107295027D01*
X121811121Y-107421072D01*
X121802989Y-107507416D01*
X121801274Y-107535133D01*
X121817249Y-107550225D01*
X121869486Y-107561543D01*
X121964690Y-107569504D01*
X122109567Y-107574521D01*
X122310820Y-107577008D01*
X122486110Y-107577467D01*
X123170753Y-107577466D01*
X122997087Y-107755266D01*
X122909692Y-107849879D01*
X122795444Y-107981330D01*
X122659938Y-108142496D01*
X122508770Y-108326256D01*
X122347534Y-108525490D01*
X122181825Y-108733074D01*
X122017239Y-108941889D01*
X121859370Y-109144812D01*
X121713815Y-109334721D01*
X121586167Y-109504496D01*
X121482021Y-109647015D01*
X121406974Y-109755155D01*
X121366620Y-109821797D01*
X121361200Y-109837456D01*
X120856000Y-109837456D01*
X120858737Y-109809948D01*
X120871138Y-109704828D01*
X120890565Y-109546727D01*
X120916126Y-109342735D01*
X120946928Y-109099940D01*
X120982077Y-108825431D01*
X121020682Y-108526297D01*
X121050444Y-108297133D01*
X121245579Y-106798533D01*
X120314403Y-106798533D01*
X120295870Y-106908600D01*
X120287608Y-106965882D01*
X120271926Y-107082436D01*
X120249854Y-107250327D01*
X120222420Y-107461624D01*
X120190653Y-107708392D01*
X120155581Y-107982700D01*
X120118234Y-108276612D01*
X120108134Y-108356400D01*
X120070357Y-108654161D01*
X120034585Y-108934409D01*
X120001847Y-109189211D01*
X119973170Y-109410634D01*
X119949584Y-109590743D01*
X119932117Y-109721607D01*
X119921798Y-109795292D01*
X119920397Y-109804200D01*
X119901864Y-109914267D01*
X119055198Y-109914267D01*
X119073596Y-109804200D01*
X119110971Y-109565640D01*
X119148878Y-109296823D01*
X119185880Y-109010631D01*
X119220538Y-108719942D01*
X119251414Y-108437636D01*
X119277069Y-108176593D01*
X119296066Y-107949694D01*
X119306967Y-107769818D01*
X119308987Y-107696000D01*
X119308976Y-107515838D01*
X119304183Y-107387572D01*
X119292585Y-107295420D01*
X119272158Y-107223600D01*
X119240881Y-107156330D01*
X119239471Y-107153689D01*
X119107120Y-106957783D01*
X118947412Y-106819626D01*
X118752883Y-106734927D01*
X118516064Y-106699393D01*
X118446233Y-106697677D01*
X118231679Y-106707787D01*
X118055231Y-106745054D01*
X117896833Y-106817793D01*
X117736432Y-106934318D01*
X117617704Y-107041170D01*
X117506197Y-107145764D01*
X117433569Y-107208472D01*
X117390352Y-107234843D01*
X117367073Y-107230427D01*
X117354263Y-107200773D01*
X117353089Y-107196219D01*
X117304961Y-107096760D01*
X117215620Y-106982931D01*
X117102888Y-106873571D01*
X116984583Y-106787522D01*
X116947750Y-106767644D01*
X116846129Y-106728206D01*
X116729871Y-106706026D01*
X116576405Y-106697421D01*
X116514224Y-106696933D01*
X116286164Y-106712490D01*
X116093458Y-106764659D01*
X115916726Y-106861686D01*
X115736593Y-107011817D01*
X115707062Y-107040429D01*
X115618071Y-107125278D01*
X115567466Y-107164804D01*
X115547656Y-107163426D01*
X115549634Y-107132067D01*
X115566309Y-107043901D01*
X115584882Y-106935635D01*
X115586517Y-106925533D01*
X115606936Y-106798533D01*
X115165135Y-106798533D01*
X115001050Y-106800360D01*
X114864566Y-106805359D01*
X114768235Y-106812808D01*
X114724611Y-106821986D01*
X114723315Y-106823933D01*
X114719031Y-106863493D01*
X114706926Y-106961806D01*
X114688098Y-107110479D01*
X114663647Y-107301122D01*
X114634673Y-107525343D01*
X114602276Y-107774752D01*
X114567555Y-108040957D01*
X114531611Y-108315568D01*
X114495542Y-108590192D01*
X114460450Y-108856439D01*
X114427432Y-109105918D01*
X114397590Y-109330238D01*
X114372023Y-109521007D01*
X114351830Y-109669834D01*
X114338112Y-109768329D01*
X114332720Y-109804200D01*
X114313864Y-109914267D01*
X114215334Y-109914267D01*
X114215334Y-105597140D01*
X120381845Y-105597140D01*
X120408230Y-105766057D01*
X120486853Y-105920505D01*
X120616116Y-106045000D01*
X120752419Y-106103155D01*
X120917604Y-106123563D01*
X121084047Y-106105826D01*
X121217576Y-106053649D01*
X121354908Y-105933041D01*
X121437287Y-105774133D01*
X121462547Y-105596267D01*
X121450332Y-105513885D01*
X142602627Y-105513885D01*
X142606666Y-105692249D01*
X142666335Y-105860332D01*
X142777542Y-106001633D01*
X142832650Y-106045000D01*
X142968952Y-106103155D01*
X143134137Y-106123563D01*
X143300581Y-106105826D01*
X143434110Y-106053649D01*
X143571441Y-105933041D01*
X143653820Y-105774133D01*
X143679080Y-105596267D01*
X143650668Y-105404649D01*
X143568729Y-105251981D01*
X143438208Y-105143022D01*
X143264050Y-105082536D01*
X143134008Y-105071460D01*
X142941425Y-105097970D01*
X142788664Y-105178763D01*
X142673143Y-105315308D01*
X142658308Y-105341738D01*
X142602627Y-105513885D01*
X121450332Y-105513885D01*
X121434135Y-105404649D01*
X121352196Y-105251981D01*
X121221675Y-105143022D01*
X121047517Y-105082536D01*
X120917475Y-105071460D01*
X120771279Y-105082421D01*
X120660790Y-105120432D01*
X120616116Y-105147533D01*
X120485788Y-105273481D01*
X120407698Y-105428149D01*
X120381845Y-105597140D01*
X114215334Y-105597140D01*
X114215334Y-104326267D01*
X162644667Y-104326267D01*
X162644667Y-111573733D01*
X162644667Y-111573733D01*
G37*
X162644667Y-111573733D02*
X114215334Y-111573733D01*
X114215334Y-109914267D01*
X114313864Y-109914267D01*
X114771954Y-109914267D01*
X114955821Y-109913834D01*
X115082990Y-109911356D01*
X115164495Y-109905063D01*
X115211372Y-109893187D01*
X115234654Y-109873956D01*
X115245376Y-109845603D01*
X115247122Y-109838067D01*
X115256214Y-109783744D01*
X115272452Y-109672692D01*
X115294392Y-109515366D01*
X115320589Y-109322225D01*
X115349598Y-109103724D01*
X115367597Y-108966000D01*
X115412636Y-108632537D01*
X115454161Y-108359363D01*
X115494439Y-108139283D01*
X115535733Y-107965098D01*
X115580308Y-107829611D01*
X115630428Y-107725627D01*
X115688359Y-107645948D01*
X115756364Y-107583376D01*
X115815224Y-107543417D01*
X115951852Y-107489911D01*
X116103783Y-107476109D01*
X116245203Y-107501910D01*
X116326617Y-107545416D01*
X116376696Y-107590076D01*
X116414793Y-107640799D01*
X116441149Y-107705204D01*
X116456003Y-107790907D01*
X116459595Y-107905529D01*
X116452166Y-108056686D01*
X116433956Y-108251996D01*
X116405204Y-108499079D01*
X116366304Y-108804386D01*
X116333864Y-109051569D01*
X116303341Y-109280644D01*
X116276072Y-109481841D01*
X116253395Y-109645395D01*
X116236648Y-109761538D01*
X116227169Y-109820502D01*
X116227042Y-109821133D01*
X116208085Y-109914267D01*
X117148447Y-109914267D01*
X117258723Y-109066912D01*
X117305396Y-108719615D01*
X117347907Y-108432939D01*
X117388303Y-108200059D01*
X117428633Y-108014149D01*
X117470946Y-107868384D01*
X117517292Y-107755937D01*
X117569719Y-107669982D01*
X117630276Y-107603694D01*
X117701012Y-107550246D01*
X117716985Y-107540238D01*
X117850170Y-107488578D01*
X118002348Y-107473685D01*
X118148095Y-107494918D01*
X118261991Y-107551635D01*
X118264861Y-107554059D01*
X118305982Y-107597366D01*
X118336660Y-107652250D01*
X118356899Y-107725745D01*
X118366700Y-107824881D01*
X118366065Y-107956693D01*
X118354996Y-108128213D01*
X118333497Y-108346472D01*
X118301569Y-108618505D01*
X118265294Y-108904516D01*
X118233680Y-109149868D01*
X118205131Y-109373823D01*
X118180765Y-109567429D01*
X118161698Y-109721737D01*
X118149045Y-109827796D01*
X118143923Y-109876654D01*
X118143867Y-109878182D01*
X118177415Y-109894842D01*
X118277149Y-109906446D01*
X118441703Y-109912887D01*
X118599532Y-109914267D01*
X119055198Y-109914267D01*
X119901864Y-109914267D01*
X120377532Y-109914267D01*
X120566479Y-109913553D01*
X120697955Y-109910563D01*
X120782214Y-109904021D01*
X120829511Y-109892653D01*
X120850100Y-109875183D01*
X120854255Y-109855000D01*
X120856000Y-109837456D01*
X121361200Y-109837456D01*
X121361200Y-109914267D01*
X124329270Y-109914267D01*
X124369235Y-109614095D01*
X124390528Y-109469968D01*
X124405998Y-109360455D01*
X124408139Y-109280865D01*
X124389444Y-109226510D01*
X124342404Y-109192699D01*
X124259515Y-109174743D01*
X124133267Y-109167951D01*
X123956155Y-109167634D01*
X123720670Y-109169103D01*
X123657082Y-109169200D01*
X122904964Y-109169200D01*
X123042870Y-109025267D01*
X123096394Y-108964997D01*
X123166370Y-108882191D01*
X124970630Y-108882191D01*
X124972852Y-109040945D01*
X124983841Y-109156125D01*
X125008061Y-109251754D01*
X125049977Y-109351856D01*
X125062912Y-109378695D01*
X125208114Y-109599770D01*
X125406638Y-109783442D01*
X125652537Y-109925099D01*
X125865467Y-110001271D01*
X125998666Y-110025362D01*
X126178322Y-110040293D01*
X126383787Y-110046103D01*
X126594412Y-110042833D01*
X126789548Y-110030522D01*
X126948546Y-110009210D01*
X126993918Y-109999095D01*
X127231902Y-109914267D01*
X128741064Y-109914267D01*
X129683611Y-109914267D01*
X129741627Y-109465533D01*
X129789702Y-109098737D01*
X129831725Y-108792548D01*
X129869283Y-108540269D01*
X129903962Y-108335207D01*
X129937348Y-108170666D01*
X129971028Y-108039950D01*
X130006588Y-107936366D01*
X130045614Y-107853218D01*
X130089692Y-107783810D01*
X130140409Y-107721449D01*
X130159883Y-107700196D01*
X130325185Y-107572356D01*
X130528642Y-107496924D01*
X130718549Y-107476610D01*
X130901837Y-107492445D01*
X131035955Y-107545189D01*
X131131716Y-107640295D01*
X131167416Y-107702975D01*
X131185679Y-107743172D01*
X131198743Y-107783291D01*
X131206164Y-107831933D01*
X131207496Y-107897700D01*
X131202295Y-107989192D01*
X131190117Y-108115010D01*
X131170516Y-108283754D01*
X131143048Y-108504025D01*
X131114368Y-108728933D01*
X131082936Y-108976073D01*
X131053748Y-109208247D01*
X131028117Y-109414794D01*
X131007356Y-109585056D01*
X130992780Y-109708374D01*
X130986041Y-109770333D01*
X130972513Y-109914267D01*
X131432478Y-109914267D01*
X131616766Y-109913841D01*
X131744312Y-109911393D01*
X131826104Y-109905162D01*
X131873133Y-109893392D01*
X131896389Y-109874322D01*
X131906861Y-109846194D01*
X131908658Y-109838067D01*
X131926396Y-109737924D01*
X131949182Y-109583980D01*
X131975695Y-109387681D01*
X132004611Y-109160469D01*
X132034608Y-108913790D01*
X132064366Y-108659087D01*
X132080768Y-108512898D01*
X132706534Y-108512898D01*
X132734719Y-108853662D01*
X132817609Y-109159749D01*
X132952701Y-109427612D01*
X133137491Y-109653703D01*
X133369478Y-109834476D01*
X133646160Y-109966382D01*
X133756400Y-110001271D01*
X133910907Y-110029418D01*
X134109722Y-110044490D01*
X134330751Y-110046770D01*
X134551900Y-110036540D01*
X134751074Y-110014083D01*
X134881941Y-109986897D01*
X135068255Y-109914267D01*
X136530398Y-109914267D01*
X136988487Y-109914267D01*
X137172354Y-109913834D01*
X137299523Y-109911356D01*
X137381029Y-109905063D01*
X137427905Y-109893187D01*
X137451187Y-109873956D01*
X137461909Y-109845603D01*
X137463656Y-109838067D01*
X137472747Y-109783744D01*
X137488985Y-109672692D01*
X137510925Y-109515366D01*
X137537122Y-109322225D01*
X137566131Y-109103724D01*
X137584130Y-108966000D01*
X137629169Y-108632537D01*
X137670695Y-108359363D01*
X137710972Y-108139283D01*
X137752266Y-107965098D01*
X137796841Y-107829611D01*
X137846962Y-107725627D01*
X137904892Y-107645948D01*
X137972897Y-107583376D01*
X138031757Y-107543417D01*
X138168385Y-107489911D01*
X138320317Y-107476109D01*
X138461737Y-107501910D01*
X138543150Y-107545416D01*
X138593229Y-107590076D01*
X138631327Y-107640799D01*
X138657682Y-107705204D01*
X138672536Y-107790907D01*
X138676128Y-107905529D01*
X138668699Y-108056686D01*
X138650489Y-108251996D01*
X138621738Y-108499079D01*
X138582837Y-108804386D01*
X138550397Y-109051569D01*
X138519874Y-109280644D01*
X138492605Y-109481841D01*
X138469928Y-109645395D01*
X138453181Y-109761538D01*
X138443702Y-109820502D01*
X138443575Y-109821133D01*
X138424618Y-109914267D01*
X139364980Y-109914267D01*
X139475256Y-109066912D01*
X139521930Y-108719615D01*
X139564440Y-108432939D01*
X139604836Y-108200059D01*
X139645166Y-108014149D01*
X139687479Y-107868384D01*
X139733825Y-107755937D01*
X139786252Y-107669982D01*
X139846809Y-107603694D01*
X139917545Y-107550246D01*
X139933519Y-107540238D01*
X140066704Y-107488578D01*
X140218881Y-107473685D01*
X140364628Y-107494918D01*
X140478525Y-107551635D01*
X140481394Y-107554059D01*
X140522515Y-107597366D01*
X140553194Y-107652250D01*
X140573432Y-107725745D01*
X140583233Y-107824881D01*
X140582598Y-107956693D01*
X140571530Y-108128213D01*
X140550031Y-108346472D01*
X140518102Y-108618505D01*
X140481827Y-108904516D01*
X140450213Y-109149868D01*
X140421665Y-109373823D01*
X140397299Y-109567429D01*
X140378231Y-109721737D01*
X140365578Y-109827796D01*
X140360456Y-109876654D01*
X140360400Y-109878182D01*
X140393949Y-109894842D01*
X140493683Y-109906446D01*
X140658236Y-109912887D01*
X140816066Y-109914267D01*
X141271731Y-109914267D01*
X142118398Y-109914267D01*
X142594066Y-109914267D01*
X142783013Y-109913553D01*
X142914489Y-109910563D01*
X142998748Y-109904021D01*
X143046044Y-109892653D01*
X143066633Y-109875183D01*
X143070788Y-109855000D01*
X143075270Y-109809948D01*
X143087671Y-109704828D01*
X143107099Y-109546727D01*
X143115972Y-109475912D01*
X143973844Y-109475912D01*
X143991764Y-109644709D01*
X144052208Y-109788704D01*
X144080417Y-109825982D01*
X144195471Y-109931544D01*
X144323841Y-109990367D01*
X144485372Y-110009872D01*
X144567549Y-110008140D01*
X144695647Y-109998441D01*
X144780830Y-109978976D01*
X144847914Y-109940639D01*
X144915337Y-109880526D01*
X145027705Y-109729952D01*
X145083548Y-109561060D01*
X145084686Y-109387411D01*
X145032942Y-109222564D01*
X144930137Y-109080080D01*
X144794581Y-108981717D01*
X144637325Y-108933388D01*
X144464576Y-108933082D01*
X144296273Y-108976190D01*
X144152356Y-109058100D01*
X144067246Y-109149885D01*
X143998865Y-109303807D01*
X143973844Y-109475912D01*
X143115972Y-109475912D01*
X143132660Y-109342735D01*
X143163461Y-109099940D01*
X143198611Y-108825431D01*
X143237216Y-108526297D01*
X143266977Y-108297133D01*
X143373566Y-107478542D01*
X145755618Y-107478542D01*
X145778111Y-107496082D01*
X145836439Y-107505504D01*
X145942487Y-107509225D01*
X146048363Y-107509733D01*
X146193287Y-107510441D01*
X146282702Y-107514699D01*
X146328830Y-107525714D01*
X146343894Y-107546690D01*
X146340119Y-107580832D01*
X146338987Y-107585933D01*
X146330495Y-107637565D01*
X146314584Y-107747537D01*
X146292457Y-107907009D01*
X146265321Y-108107139D01*
X146234382Y-108339087D01*
X146200843Y-108594011D01*
X146185467Y-108712000D01*
X146151162Y-108974277D01*
X146118923Y-109217496D01*
X146089953Y-109432814D01*
X146065458Y-109611390D01*
X146046644Y-109744385D01*
X146034716Y-109822955D01*
X146031946Y-109838067D01*
X146014843Y-109914267D01*
X146489622Y-109914267D01*
X146660149Y-109913355D01*
X146803515Y-109910851D01*
X146907612Y-109907102D01*
X146960329Y-109902454D01*
X146964400Y-109900676D01*
X146968703Y-109865102D01*
X146980927Y-109770200D01*
X147000045Y-109623785D01*
X147025033Y-109433670D01*
X147054862Y-109207667D01*
X147088508Y-108953590D01*
X147116767Y-108740743D01*
X147146918Y-108512898D01*
X148048134Y-108512898D01*
X148076319Y-108853662D01*
X148159209Y-109159749D01*
X148294301Y-109427612D01*
X148479091Y-109653703D01*
X148711078Y-109834476D01*
X148987760Y-109966382D01*
X149098000Y-110001271D01*
X149252507Y-110029418D01*
X149451322Y-110044490D01*
X149672351Y-110046770D01*
X149893500Y-110036540D01*
X150092674Y-110014083D01*
X150223541Y-109986897D01*
X150409855Y-109914267D01*
X151869685Y-109914267D01*
X152346509Y-109914267D01*
X152546921Y-109912682D01*
X152687134Y-109907488D01*
X152774615Y-109898020D01*
X152816835Y-109883617D01*
X152823557Y-109871933D01*
X152827912Y-109821422D01*
X152839743Y-109718283D01*
X152857520Y-109573986D01*
X152879712Y-109400003D01*
X152904790Y-109207803D01*
X152931224Y-109008856D01*
X152957484Y-108814632D01*
X152982040Y-108636602D01*
X153003362Y-108486236D01*
X153019921Y-108375004D01*
X153030186Y-108314376D01*
X153032334Y-108306668D01*
X153053257Y-108331072D01*
X153106922Y-108404915D01*
X153188521Y-108521259D01*
X153293246Y-108673171D01*
X153416289Y-108853715D01*
X153552843Y-109055956D01*
X153585334Y-109104331D01*
X154127200Y-109911905D01*
X154660600Y-109913086D01*
X154842034Y-109912604D01*
X154996992Y-109910509D01*
X155114050Y-109907091D01*
X155181784Y-109902639D01*
X155194000Y-109899533D01*
X155175408Y-109869097D01*
X155122792Y-109790051D01*
X155040888Y-109669332D01*
X154934436Y-109513877D01*
X154808173Y-109330621D01*
X154666836Y-109126500D01*
X154612696Y-109048551D01*
X154434379Y-108790189D01*
X154293873Y-108582259D01*
X154188685Y-108420754D01*
X154116325Y-108301668D01*
X154074299Y-108220995D01*
X154060117Y-108174728D01*
X154062362Y-108163726D01*
X154095204Y-108128777D01*
X154171687Y-108055458D01*
X154284734Y-107950297D01*
X154427273Y-107819821D01*
X154592229Y-107670558D01*
X154753734Y-107525799D01*
X154958610Y-107343951D01*
X155119079Y-107204119D01*
X155240380Y-107102242D01*
X155327752Y-107034260D01*
X155386435Y-106996112D01*
X155421669Y-106983740D01*
X155438692Y-106993081D01*
X155439358Y-106994490D01*
X155455176Y-107043065D01*
X155485648Y-107147558D01*
X155528491Y-107299473D01*
X155581417Y-107490312D01*
X155642142Y-107711578D01*
X155708381Y-107954775D01*
X155777846Y-108211405D01*
X155848254Y-108472972D01*
X155917318Y-108730978D01*
X155982753Y-108976926D01*
X156042274Y-109202320D01*
X156093594Y-109398662D01*
X156134429Y-109557455D01*
X156162492Y-109670203D01*
X156175500Y-109728408D01*
X156176134Y-109733640D01*
X156160599Y-109776295D01*
X156116974Y-109869495D01*
X156049726Y-110004390D01*
X155963324Y-110172130D01*
X155862236Y-110363865D01*
X155788791Y-110500834D01*
X155679170Y-110704627D01*
X155579652Y-110890965D01*
X155495011Y-111050803D01*
X155430020Y-111175096D01*
X155389453Y-111254799D01*
X155378430Y-111278440D01*
X155373923Y-111300915D01*
X155386657Y-111316658D01*
X155425920Y-111326588D01*
X155500997Y-111331622D01*
X155621176Y-111332678D01*
X155795742Y-111330673D01*
X155890932Y-111329080D01*
X156426453Y-111319733D01*
X157637941Y-109084533D01*
X157832708Y-108724885D01*
X157947310Y-108512898D01*
X158885467Y-108512898D01*
X158913653Y-108853662D01*
X158996543Y-109159749D01*
X159131634Y-109427612D01*
X159316424Y-109653703D01*
X159548412Y-109834476D01*
X159825094Y-109966382D01*
X159935334Y-110001271D01*
X160089840Y-110029418D01*
X160288655Y-110044490D01*
X160509684Y-110046770D01*
X160730833Y-110036540D01*
X160930007Y-110014083D01*
X161060874Y-109986897D01*
X161359785Y-109870374D01*
X161631952Y-109698322D01*
X161869080Y-109479534D01*
X162062875Y-109222804D01*
X162205043Y-108936925D01*
X162274589Y-108700171D01*
X162297861Y-108519783D01*
X162303893Y-108305125D01*
X162294050Y-108078526D01*
X162269694Y-107862315D01*
X162232190Y-107678821D01*
X162207575Y-107602796D01*
X162068776Y-107337485D01*
X161875554Y-107106859D01*
X161635512Y-106918384D01*
X161377853Y-106787844D01*
X161230335Y-106747249D01*
X161036376Y-106718414D01*
X160816357Y-106702023D01*
X160590658Y-106698757D01*
X160379660Y-106709297D01*
X160203742Y-106734327D01*
X160153422Y-106746871D01*
X159888727Y-106842730D01*
X159662340Y-106970327D01*
X159449451Y-107144450D01*
X159391202Y-107201222D01*
X159183949Y-107446358D01*
X159033692Y-107711623D01*
X158937088Y-108005682D01*
X158890796Y-108337201D01*
X158885467Y-108512898D01*
X157947310Y-108512898D01*
X158017813Y-108382484D01*
X158190753Y-108062000D01*
X158349026Y-107768098D01*
X158490128Y-107505445D01*
X158611555Y-107278709D01*
X158710804Y-107092556D01*
X158785373Y-106951653D01*
X158832756Y-106860668D01*
X158850452Y-106824267D01*
X158850515Y-106823933D01*
X158818938Y-106815331D01*
X158731024Y-106808053D01*
X158598168Y-106802628D01*
X158431761Y-106799588D01*
X158318200Y-106799132D01*
X157784800Y-106799732D01*
X157352323Y-107688132D01*
X157238274Y-107923695D01*
X157131127Y-108147423D01*
X157035342Y-108349813D01*
X156955380Y-108521362D01*
X156895703Y-108652567D01*
X156860771Y-108733923D01*
X156857925Y-108741284D01*
X156796005Y-108906036D01*
X156773530Y-108741284D01*
X156761022Y-108663671D01*
X156737442Y-108530459D01*
X156704804Y-108352507D01*
X156665119Y-108140672D01*
X156620400Y-107905814D01*
X156578250Y-107687533D01*
X156405445Y-106798533D01*
X154372448Y-106798533D01*
X153716424Y-107428840D01*
X153543889Y-107593042D01*
X153388464Y-107737945D01*
X153256367Y-107857999D01*
X153153811Y-107947655D01*
X153087013Y-108001363D01*
X153062187Y-108013574D01*
X153062157Y-108013040D01*
X153066845Y-107970728D01*
X153079542Y-107868345D01*
X153099334Y-107712960D01*
X153125306Y-107511646D01*
X153156542Y-107271471D01*
X153192129Y-106999509D01*
X153231149Y-106702829D01*
X153258761Y-106493733D01*
X153453608Y-105020533D01*
X152998346Y-105011080D01*
X152830703Y-105008275D01*
X152689568Y-105007195D01*
X152587612Y-105007840D01*
X152537505Y-105010211D01*
X152534558Y-105011080D01*
X152528836Y-105045365D01*
X152515048Y-105141411D01*
X152493922Y-105293820D01*
X152466184Y-105497193D01*
X152432561Y-105746131D01*
X152393781Y-106035237D01*
X152350571Y-106359110D01*
X152303659Y-106712354D01*
X152253770Y-107089568D01*
X152216247Y-107374267D01*
X152164321Y-107768142D01*
X152114606Y-108143986D01*
X152067861Y-108496140D01*
X152024844Y-108818949D01*
X151986314Y-109106755D01*
X151953031Y-109353903D01*
X151925751Y-109554734D01*
X151905235Y-109703594D01*
X151892240Y-109794824D01*
X151888072Y-109821133D01*
X151869685Y-109914267D01*
X150409855Y-109914267D01*
X150522452Y-109870374D01*
X150794619Y-109698322D01*
X151031747Y-109479534D01*
X151225542Y-109222804D01*
X151367709Y-108936925D01*
X151437256Y-108700171D01*
X151460528Y-108519783D01*
X151466560Y-108305125D01*
X151456717Y-108078526D01*
X151432361Y-107862315D01*
X151394857Y-107678821D01*
X151370242Y-107602796D01*
X151231442Y-107337485D01*
X151038221Y-107106859D01*
X150798179Y-106918384D01*
X150540519Y-106787844D01*
X150393002Y-106747249D01*
X150199043Y-106718414D01*
X149979024Y-106702023D01*
X149753325Y-106698757D01*
X149542326Y-106709297D01*
X149366408Y-106734327D01*
X149316089Y-106746871D01*
X149051394Y-106842730D01*
X148825007Y-106970327D01*
X148612117Y-107144450D01*
X148553869Y-107201222D01*
X148346616Y-107446358D01*
X148196358Y-107711623D01*
X148099754Y-108005682D01*
X148053463Y-108337201D01*
X148048134Y-108512898D01*
X147146918Y-108512898D01*
X147152775Y-108468644D01*
X147185750Y-108217159D01*
X147214657Y-107994364D01*
X147238462Y-107808330D01*
X147256130Y-107667130D01*
X147266625Y-107578838D01*
X147269167Y-107552067D01*
X147291033Y-107530138D01*
X147361634Y-107516606D01*
X147488538Y-107510412D01*
X147571309Y-107509733D01*
X147873418Y-107509733D01*
X147891677Y-107416600D01*
X147905269Y-107331281D01*
X147920967Y-107210029D01*
X147931008Y-107120267D01*
X147945077Y-107000576D01*
X147959563Y-106902149D01*
X147968523Y-106857800D01*
X147969981Y-106829700D01*
X147947458Y-106812156D01*
X147889061Y-106802743D01*
X147782896Y-106799034D01*
X147677882Y-106798533D01*
X147543099Y-106797569D01*
X147438423Y-106794985D01*
X147378913Y-106791244D01*
X147370800Y-106789090D01*
X147375299Y-106754031D01*
X147387655Y-106664185D01*
X147406161Y-106531821D01*
X147429108Y-106369209D01*
X147438004Y-106306490D01*
X147462326Y-106132623D01*
X147482804Y-105981246D01*
X147497676Y-105865768D01*
X147505180Y-105799600D01*
X147505737Y-105791000D01*
X147488129Y-105773089D01*
X147429775Y-105760605D01*
X147323162Y-105752867D01*
X147160776Y-105749198D01*
X147037325Y-105748667D01*
X146568383Y-105748667D01*
X146503445Y-106265133D01*
X146438506Y-106781600D01*
X146145062Y-106791350D01*
X146011946Y-106795465D01*
X145922740Y-106804990D01*
X145867225Y-106831492D01*
X145835182Y-106886535D01*
X145816391Y-106981686D01*
X145800632Y-107128512D01*
X145794592Y-107188000D01*
X145780524Y-107307690D01*
X145766037Y-107406117D01*
X145757077Y-107450467D01*
X145755618Y-107478542D01*
X143373566Y-107478542D01*
X143462112Y-106798533D01*
X142530936Y-106798533D01*
X142512404Y-106908600D01*
X142504141Y-106965882D01*
X142488460Y-107082436D01*
X142466388Y-107250327D01*
X142438953Y-107461624D01*
X142407186Y-107708392D01*
X142372115Y-107982700D01*
X142334767Y-108276612D01*
X142324667Y-108356400D01*
X142286891Y-108654161D01*
X142251119Y-108934409D01*
X142218380Y-109189211D01*
X142189703Y-109410634D01*
X142166117Y-109590743D01*
X142148650Y-109721607D01*
X142138331Y-109795292D01*
X142136930Y-109804200D01*
X142118398Y-109914267D01*
X141271731Y-109914267D01*
X141290129Y-109804200D01*
X141327504Y-109565640D01*
X141365412Y-109296823D01*
X141402414Y-109010631D01*
X141437071Y-108719942D01*
X141467947Y-108437636D01*
X141493602Y-108176593D01*
X141512600Y-107949694D01*
X141523501Y-107769818D01*
X141525521Y-107696000D01*
X141525510Y-107515838D01*
X141520716Y-107387572D01*
X141509118Y-107295420D01*
X141488692Y-107223600D01*
X141457414Y-107156330D01*
X141456005Y-107153689D01*
X141323653Y-106957783D01*
X141163946Y-106819626D01*
X140969416Y-106734927D01*
X140732597Y-106699393D01*
X140662766Y-106697677D01*
X140448212Y-106707787D01*
X140271764Y-106745054D01*
X140113367Y-106817793D01*
X139952965Y-106934318D01*
X139834237Y-107041170D01*
X139722730Y-107145764D01*
X139650103Y-107208472D01*
X139606885Y-107234843D01*
X139583606Y-107230427D01*
X139570797Y-107200773D01*
X139569623Y-107196219D01*
X139521494Y-107096760D01*
X139432154Y-106982931D01*
X139319421Y-106873571D01*
X139201116Y-106787522D01*
X139164284Y-106767644D01*
X139062663Y-106728206D01*
X138946404Y-106706026D01*
X138792938Y-106697421D01*
X138730757Y-106696933D01*
X138502698Y-106712490D01*
X138309991Y-106764659D01*
X138133260Y-106861686D01*
X137953126Y-107011817D01*
X137923596Y-107040429D01*
X137834604Y-107125278D01*
X137783999Y-107164804D01*
X137764189Y-107163426D01*
X137766167Y-107132067D01*
X137782842Y-107043901D01*
X137801415Y-106935635D01*
X137803050Y-106925533D01*
X137823469Y-106798533D01*
X137381668Y-106798533D01*
X137217584Y-106800360D01*
X137081100Y-106805359D01*
X136984769Y-106812808D01*
X136941144Y-106821986D01*
X136939848Y-106823933D01*
X136935565Y-106863493D01*
X136923459Y-106961806D01*
X136904631Y-107110479D01*
X136880180Y-107301122D01*
X136851206Y-107525343D01*
X136818809Y-107774752D01*
X136784089Y-108040957D01*
X136748144Y-108315568D01*
X136712076Y-108590192D01*
X136676983Y-108856439D01*
X136643966Y-109105918D01*
X136614123Y-109330238D01*
X136588556Y-109521007D01*
X136568363Y-109669834D01*
X136554645Y-109768329D01*
X136549254Y-109804200D01*
X136530398Y-109914267D01*
X135068255Y-109914267D01*
X135180852Y-109870374D01*
X135453019Y-109698322D01*
X135690147Y-109479534D01*
X135883942Y-109222804D01*
X136026109Y-108936925D01*
X136095656Y-108700171D01*
X136118928Y-108519783D01*
X136124960Y-108305125D01*
X136115117Y-108078526D01*
X136090761Y-107862315D01*
X136053257Y-107678821D01*
X136028642Y-107602796D01*
X135889842Y-107337485D01*
X135696621Y-107106859D01*
X135456579Y-106918384D01*
X135198919Y-106787844D01*
X135051402Y-106747249D01*
X134857443Y-106718414D01*
X134637424Y-106702023D01*
X134411725Y-106698757D01*
X134200726Y-106709297D01*
X134024808Y-106734327D01*
X133974489Y-106746871D01*
X133709794Y-106842730D01*
X133483407Y-106970327D01*
X133270517Y-107144450D01*
X133212269Y-107201222D01*
X133005016Y-107446358D01*
X132854758Y-107711623D01*
X132758154Y-108005682D01*
X132711863Y-108337201D01*
X132706534Y-108512898D01*
X132080768Y-108512898D01*
X132092560Y-108407806D01*
X132117870Y-108171390D01*
X132138972Y-107961283D01*
X132154546Y-107788930D01*
X132163268Y-107665776D01*
X132164667Y-107622096D01*
X132142347Y-107369623D01*
X132073238Y-107162161D01*
X131954114Y-106992858D01*
X131813151Y-106875193D01*
X131669382Y-106790742D01*
X131525006Y-106736261D01*
X131361079Y-106707473D01*
X131158660Y-106700099D01*
X131049317Y-106702650D01*
X130810756Y-106723700D01*
X130608668Y-106773479D01*
X130421096Y-106860484D01*
X130226083Y-106993213D01*
X130156928Y-107048027D01*
X130058040Y-107126490D01*
X130001028Y-107164502D01*
X129976793Y-107166211D01*
X129976235Y-107135768D01*
X129977382Y-107129884D01*
X129993642Y-107043438D01*
X130012008Y-106936089D01*
X130013717Y-106925533D01*
X130034136Y-106798533D01*
X129592335Y-106798533D01*
X129428250Y-106800360D01*
X129291766Y-106805359D01*
X129195435Y-106812808D01*
X129151811Y-106821986D01*
X129150515Y-106823933D01*
X129146231Y-106863493D01*
X129134126Y-106961806D01*
X129115298Y-107110479D01*
X129090847Y-107301122D01*
X129061873Y-107525343D01*
X129029476Y-107774752D01*
X128994755Y-108040957D01*
X128958811Y-108315568D01*
X128922742Y-108590192D01*
X128887650Y-108856439D01*
X128854632Y-109105918D01*
X128824790Y-109330238D01*
X128799223Y-109521007D01*
X128779030Y-109669834D01*
X128765312Y-109768329D01*
X128759920Y-109804200D01*
X128741064Y-109914267D01*
X127231902Y-109914267D01*
X127278617Y-109897616D01*
X127519416Y-109751384D01*
X127718631Y-109557488D01*
X127878580Y-109313016D01*
X128001580Y-109015056D01*
X128089948Y-108660696D01*
X128099002Y-108610400D01*
X128113589Y-108518748D01*
X128134161Y-108379558D01*
X128159196Y-108204098D01*
X128187174Y-108003632D01*
X128216572Y-107789428D01*
X128245869Y-107572752D01*
X128273544Y-107364869D01*
X128298075Y-107177047D01*
X128317942Y-107020552D01*
X128331622Y-106906650D01*
X128337594Y-106846607D01*
X128337733Y-106842527D01*
X128325205Y-106823841D01*
X128281530Y-106811568D01*
X128197576Y-106804993D01*
X128064209Y-106803398D01*
X127873272Y-106806044D01*
X127408811Y-106815467D01*
X127316241Y-107543570D01*
X127268486Y-107902182D01*
X127223388Y-108200031D01*
X127178968Y-108443930D01*
X127133245Y-108640693D01*
X127084239Y-108797130D01*
X127029971Y-108920055D01*
X126968459Y-109016281D01*
X126897725Y-109092618D01*
X126855917Y-109127268D01*
X126732048Y-109189556D01*
X126571163Y-109227479D01*
X126400570Y-109237885D01*
X126247579Y-109217621D01*
X126203106Y-109202641D01*
X126067046Y-109111926D01*
X125966098Y-108975759D01*
X125915833Y-108821906D01*
X125914728Y-108752664D01*
X125921835Y-108626743D01*
X125936020Y-108454551D01*
X125956150Y-108246494D01*
X125981089Y-108012980D01*
X126009704Y-107764414D01*
X126040860Y-107511204D01*
X126073423Y-107263757D01*
X126106259Y-107032479D01*
X126122522Y-106925533D01*
X126142354Y-106798533D01*
X125200852Y-106798533D01*
X125086286Y-107687533D01*
X125054611Y-107944918D01*
X125026206Y-108197928D01*
X125002348Y-108433358D01*
X124984318Y-108638000D01*
X124973392Y-108798649D01*
X124970630Y-108882191D01*
X123166370Y-108882191D01*
X123186054Y-108858899D01*
X123305909Y-108714223D01*
X123450015Y-108538217D01*
X123612433Y-108338132D01*
X123787219Y-108121218D01*
X123931479Y-107941044D01*
X124149597Y-107666728D01*
X124327816Y-107439872D01*
X124469503Y-107255823D01*
X124578027Y-107109929D01*
X124656755Y-106997537D01*
X124709056Y-106913995D01*
X124738297Y-106854650D01*
X124747846Y-106814849D01*
X124747867Y-106813262D01*
X124715162Y-106810136D01*
X124621694Y-106807236D01*
X124474431Y-106804635D01*
X124280345Y-106802402D01*
X124046405Y-106800612D01*
X123779581Y-106799333D01*
X123486841Y-106798640D01*
X123314631Y-106798533D01*
X121881394Y-106798533D01*
X121841238Y-107145667D01*
X121824431Y-107295027D01*
X121811121Y-107421072D01*
X121802989Y-107507416D01*
X121801274Y-107535133D01*
X121817249Y-107550225D01*
X121869486Y-107561543D01*
X121964690Y-107569504D01*
X122109567Y-107574521D01*
X122310820Y-107577008D01*
X122486110Y-107577467D01*
X123170753Y-107577466D01*
X122997087Y-107755266D01*
X122909692Y-107849879D01*
X122795444Y-107981330D01*
X122659938Y-108142496D01*
X122508770Y-108326256D01*
X122347534Y-108525490D01*
X122181825Y-108733074D01*
X122017239Y-108941889D01*
X121859370Y-109144812D01*
X121713815Y-109334721D01*
X121586167Y-109504496D01*
X121482021Y-109647015D01*
X121406974Y-109755155D01*
X121366620Y-109821797D01*
X121361200Y-109837456D01*
X120856000Y-109837456D01*
X120858737Y-109809948D01*
X120871138Y-109704828D01*
X120890565Y-109546727D01*
X120916126Y-109342735D01*
X120946928Y-109099940D01*
X120982077Y-108825431D01*
X121020682Y-108526297D01*
X121050444Y-108297133D01*
X121245579Y-106798533D01*
X120314403Y-106798533D01*
X120295870Y-106908600D01*
X120287608Y-106965882D01*
X120271926Y-107082436D01*
X120249854Y-107250327D01*
X120222420Y-107461624D01*
X120190653Y-107708392D01*
X120155581Y-107982700D01*
X120118234Y-108276612D01*
X120108134Y-108356400D01*
X120070357Y-108654161D01*
X120034585Y-108934409D01*
X120001847Y-109189211D01*
X119973170Y-109410634D01*
X119949584Y-109590743D01*
X119932117Y-109721607D01*
X119921798Y-109795292D01*
X119920397Y-109804200D01*
X119901864Y-109914267D01*
X119055198Y-109914267D01*
X119073596Y-109804200D01*
X119110971Y-109565640D01*
X119148878Y-109296823D01*
X119185880Y-109010631D01*
X119220538Y-108719942D01*
X119251414Y-108437636D01*
X119277069Y-108176593D01*
X119296066Y-107949694D01*
X119306967Y-107769818D01*
X119308987Y-107696000D01*
X119308976Y-107515838D01*
X119304183Y-107387572D01*
X119292585Y-107295420D01*
X119272158Y-107223600D01*
X119240881Y-107156330D01*
X119239471Y-107153689D01*
X119107120Y-106957783D01*
X118947412Y-106819626D01*
X118752883Y-106734927D01*
X118516064Y-106699393D01*
X118446233Y-106697677D01*
X118231679Y-106707787D01*
X118055231Y-106745054D01*
X117896833Y-106817793D01*
X117736432Y-106934318D01*
X117617704Y-107041170D01*
X117506197Y-107145764D01*
X117433569Y-107208472D01*
X117390352Y-107234843D01*
X117367073Y-107230427D01*
X117354263Y-107200773D01*
X117353089Y-107196219D01*
X117304961Y-107096760D01*
X117215620Y-106982931D01*
X117102888Y-106873571D01*
X116984583Y-106787522D01*
X116947750Y-106767644D01*
X116846129Y-106728206D01*
X116729871Y-106706026D01*
X116576405Y-106697421D01*
X116514224Y-106696933D01*
X116286164Y-106712490D01*
X116093458Y-106764659D01*
X115916726Y-106861686D01*
X115736593Y-107011817D01*
X115707062Y-107040429D01*
X115618071Y-107125278D01*
X115567466Y-107164804D01*
X115547656Y-107163426D01*
X115549634Y-107132067D01*
X115566309Y-107043901D01*
X115584882Y-106935635D01*
X115586517Y-106925533D01*
X115606936Y-106798533D01*
X115165135Y-106798533D01*
X115001050Y-106800360D01*
X114864566Y-106805359D01*
X114768235Y-106812808D01*
X114724611Y-106821986D01*
X114723315Y-106823933D01*
X114719031Y-106863493D01*
X114706926Y-106961806D01*
X114688098Y-107110479D01*
X114663647Y-107301122D01*
X114634673Y-107525343D01*
X114602276Y-107774752D01*
X114567555Y-108040957D01*
X114531611Y-108315568D01*
X114495542Y-108590192D01*
X114460450Y-108856439D01*
X114427432Y-109105918D01*
X114397590Y-109330238D01*
X114372023Y-109521007D01*
X114351830Y-109669834D01*
X114338112Y-109768329D01*
X114332720Y-109804200D01*
X114313864Y-109914267D01*
X114215334Y-109914267D01*
X114215334Y-105597140D01*
X120381845Y-105597140D01*
X120408230Y-105766057D01*
X120486853Y-105920505D01*
X120616116Y-106045000D01*
X120752419Y-106103155D01*
X120917604Y-106123563D01*
X121084047Y-106105826D01*
X121217576Y-106053649D01*
X121354908Y-105933041D01*
X121437287Y-105774133D01*
X121462547Y-105596267D01*
X121450332Y-105513885D01*
X142602627Y-105513885D01*
X142606666Y-105692249D01*
X142666335Y-105860332D01*
X142777542Y-106001633D01*
X142832650Y-106045000D01*
X142968952Y-106103155D01*
X143134137Y-106123563D01*
X143300581Y-106105826D01*
X143434110Y-106053649D01*
X143571441Y-105933041D01*
X143653820Y-105774133D01*
X143679080Y-105596267D01*
X143650668Y-105404649D01*
X143568729Y-105251981D01*
X143438208Y-105143022D01*
X143264050Y-105082536D01*
X143134008Y-105071460D01*
X142941425Y-105097970D01*
X142788664Y-105178763D01*
X142673143Y-105315308D01*
X142658308Y-105341738D01*
X142602627Y-105513885D01*
X121450332Y-105513885D01*
X121434135Y-105404649D01*
X121352196Y-105251981D01*
X121221675Y-105143022D01*
X121047517Y-105082536D01*
X120917475Y-105071460D01*
X120771279Y-105082421D01*
X120660790Y-105120432D01*
X120616116Y-105147533D01*
X120485788Y-105273481D01*
X120407698Y-105428149D01*
X120381845Y-105597140D01*
X114215334Y-105597140D01*
X114215334Y-104326267D01*
X162644667Y-104326267D01*
X162644667Y-111573733D01*
G36*
X134537971Y-107551242D02*
X134679763Y-107559822D01*
X134777061Y-107577350D01*
X134853056Y-107610168D01*
X134919007Y-107655417D01*
X135039719Y-107771623D01*
X135117709Y-107910571D01*
X135160795Y-108088824D01*
X135171102Y-108189335D01*
X135162045Y-108449556D01*
X135099174Y-108685237D01*
X134986820Y-108887823D01*
X134829309Y-109048761D01*
X134693884Y-109132356D01*
X134535028Y-109183679D01*
X134351430Y-109204191D01*
X134169635Y-109193592D01*
X134016185Y-109151581D01*
X133992938Y-109140296D01*
X133838825Y-109021275D01*
X133730276Y-108855299D01*
X133671061Y-108648714D01*
X133664005Y-108586596D01*
X133671209Y-108331897D01*
X133730995Y-108094903D01*
X133838044Y-107886654D01*
X133987036Y-107718193D01*
X134128934Y-107621523D01*
X134224542Y-107578378D01*
X134318483Y-107555732D01*
X134436799Y-107549113D01*
X134537971Y-107551242D01*
X134537971Y-107551242D01*
G37*
X134537971Y-107551242D02*
X134679763Y-107559822D01*
X134777061Y-107577350D01*
X134853056Y-107610168D01*
X134919007Y-107655417D01*
X135039719Y-107771623D01*
X135117709Y-107910571D01*
X135160795Y-108088824D01*
X135171102Y-108189335D01*
X135162045Y-108449556D01*
X135099174Y-108685237D01*
X134986820Y-108887823D01*
X134829309Y-109048761D01*
X134693884Y-109132356D01*
X134535028Y-109183679D01*
X134351430Y-109204191D01*
X134169635Y-109193592D01*
X134016185Y-109151581D01*
X133992938Y-109140296D01*
X133838825Y-109021275D01*
X133730276Y-108855299D01*
X133671061Y-108648714D01*
X133664005Y-108586596D01*
X133671209Y-108331897D01*
X133730995Y-108094903D01*
X133838044Y-107886654D01*
X133987036Y-107718193D01*
X134128934Y-107621523D01*
X134224542Y-107578378D01*
X134318483Y-107555732D01*
X134436799Y-107549113D01*
X134537971Y-107551242D01*
G36*
X149879571Y-107551242D02*
X150021363Y-107559822D01*
X150118661Y-107577350D01*
X150194656Y-107610168D01*
X150260607Y-107655417D01*
X150381319Y-107771623D01*
X150459309Y-107910571D01*
X150502395Y-108088824D01*
X150512702Y-108189335D01*
X150503645Y-108449556D01*
X150440774Y-108685237D01*
X150328420Y-108887823D01*
X150170909Y-109048761D01*
X150035484Y-109132356D01*
X149876628Y-109183679D01*
X149693030Y-109204191D01*
X149511235Y-109193592D01*
X149357785Y-109151581D01*
X149334538Y-109140296D01*
X149180425Y-109021275D01*
X149071876Y-108855299D01*
X149012661Y-108648714D01*
X149005605Y-108586596D01*
X149012809Y-108331897D01*
X149072595Y-108094903D01*
X149179644Y-107886654D01*
X149328636Y-107718193D01*
X149470534Y-107621523D01*
X149566142Y-107578378D01*
X149660083Y-107555732D01*
X149778399Y-107549113D01*
X149879571Y-107551242D01*
X149879571Y-107551242D01*
G37*
X149879571Y-107551242D02*
X150021363Y-107559822D01*
X150118661Y-107577350D01*
X150194656Y-107610168D01*
X150260607Y-107655417D01*
X150381319Y-107771623D01*
X150459309Y-107910571D01*
X150502395Y-108088824D01*
X150512702Y-108189335D01*
X150503645Y-108449556D01*
X150440774Y-108685237D01*
X150328420Y-108887823D01*
X150170909Y-109048761D01*
X150035484Y-109132356D01*
X149876628Y-109183679D01*
X149693030Y-109204191D01*
X149511235Y-109193592D01*
X149357785Y-109151581D01*
X149334538Y-109140296D01*
X149180425Y-109021275D01*
X149071876Y-108855299D01*
X149012661Y-108648714D01*
X149005605Y-108586596D01*
X149012809Y-108331897D01*
X149072595Y-108094903D01*
X149179644Y-107886654D01*
X149328636Y-107718193D01*
X149470534Y-107621523D01*
X149566142Y-107578378D01*
X149660083Y-107555732D01*
X149778399Y-107549113D01*
X149879571Y-107551242D01*
G36*
X160716905Y-107551242D02*
X160858696Y-107559822D01*
X160955994Y-107577350D01*
X161031989Y-107610168D01*
X161097940Y-107655417D01*
X161218653Y-107771623D01*
X161296642Y-107910571D01*
X161339728Y-108088824D01*
X161350035Y-108189335D01*
X161340978Y-108449556D01*
X161278108Y-108685237D01*
X161165753Y-108887823D01*
X161008242Y-109048761D01*
X160872817Y-109132356D01*
X160713962Y-109183679D01*
X160530364Y-109204191D01*
X160348568Y-109193592D01*
X160195119Y-109151581D01*
X160171872Y-109140296D01*
X160017758Y-109021275D01*
X159909209Y-108855299D01*
X159849995Y-108648714D01*
X159842938Y-108586596D01*
X159850142Y-108331897D01*
X159909928Y-108094903D01*
X160016977Y-107886654D01*
X160165969Y-107718193D01*
X160307867Y-107621523D01*
X160403475Y-107578378D01*
X160497417Y-107555732D01*
X160615733Y-107549113D01*
X160716905Y-107551242D01*
X160716905Y-107551242D01*
G37*
X160716905Y-107551242D02*
X160858696Y-107559822D01*
X160955994Y-107577350D01*
X161031989Y-107610168D01*
X161097940Y-107655417D01*
X161218653Y-107771623D01*
X161296642Y-107910571D01*
X161339728Y-108088824D01*
X161350035Y-108189335D01*
X161340978Y-108449556D01*
X161278108Y-108685237D01*
X161165753Y-108887823D01*
X161008242Y-109048761D01*
X160872817Y-109132356D01*
X160713962Y-109183679D01*
X160530364Y-109204191D01*
X160348568Y-109193592D01*
X160195119Y-109151581D01*
X160171872Y-109140296D01*
X160017758Y-109021275D01*
X159909209Y-108855299D01*
X159849995Y-108648714D01*
X159842938Y-108586596D01*
X159850142Y-108331897D01*
X159909928Y-108094903D01*
X160016977Y-107886654D01*
X160165969Y-107718193D01*
X160307867Y-107621523D01*
X160403475Y-107578378D01*
X160497417Y-107555732D01*
X160615733Y-107549113D01*
X160716905Y-107551242D01*
D13*
X152663667Y-80395781D02*
X152663667Y-81110067D01*
X152616047Y-81252924D01*
X152520809Y-81348162D01*
X152377952Y-81395781D01*
X152282714Y-81395781D01*
X153663667Y-81395781D02*
X153092238Y-81395781D01*
X153377952Y-81395781D02*
X153377952Y-80395781D01*
X153282714Y-80538638D01*
X153187476Y-80633876D01*
X153092238Y-80681495D01*
X157368381Y-76622233D02*
X158082667Y-76622233D01*
X158225524Y-76669853D01*
X158320762Y-76765091D01*
X158368381Y-76907948D01*
X158368381Y-77003186D01*
X157463619Y-76193662D02*
X157416000Y-76146043D01*
X157368381Y-76050805D01*
X157368381Y-75812709D01*
X157416000Y-75717471D01*
X157463619Y-75669852D01*
X157558857Y-75622233D01*
X157654095Y-75622233D01*
X157796952Y-75669852D01*
X158368381Y-76241281D01*
X158368381Y-75622233D01*
M02*
